<?xml version="1.0" encoding="utf-8"?>
<!-- Generator: Adobe Illustrator 17.1.0, SVG Export Plug-In . SVG Version: 6.00 Build 0)  -->
<!DOCTYPE svg PUBLIC "-//W3C//DTD SVG 1.1//EN" "http://www.w3.org/Graphics/SVG/1.1/DTD/svg11.dtd">
<svg version="1.1" id="Layer_1" xmlns="http://www.w3.org/2000/svg" xmlns:xlink="http://www.w3.org/1999/xlink" x="0px" y="0px"
	 viewBox="-317 322 356.7 82" enable-background="new -317 322 356.7 82" xml:space="preserve">
<g>
	<rect x="-317" y="333.7" fill="#2491D0" width="356.7" height="66"/>
	<path fill="#FFFFFF" stroke="#2491D0" stroke-miterlimit="10" d="M-231.8,352.8c-4.1-17.4-18.8-30.3-36.4-30.3
		c-17.6,0-32.3,12.9-36.4,30.3h20v19.9c0,1.8,1.5,3.3,3.3,3.3s3.3-1.5,3.3-3.3v-19.9h19.5v19.9c0,1.8,1.5,3.3,3.3,3.3
		s3.3-1.5,3.3-3.3v-19.9H-231.8z"/>
	<path fill="#FFFFFF" stroke="#2491D0" stroke-miterlimit="10" d="M-238.1,370.5c-3,14.8-15.3,25.8-30,25.8c-14.7,0-27-11-30-25.8
		h-6.9c3.1,18.8,18.4,33,36.9,33c18.5,0,33.8-14.2,36.9-33H-238.1z"/>
	<g>
		<path fill="#FFFFFF" d="M-216.4,365.5h0.1c1.6-6.1,5.7-9.2,12.4-9.3c4.3,0.1,7.5,1.7,9.8,4.8c2.2,3.1,3.4,6.9,3.4,11.4
			c0,4.7-1.2,8.5-3.5,11.5c-2.3,3-5.5,4.5-9.6,4.6c-3.1,0-5.8-0.9-7.9-2.7c-2.1-1.7-3.6-3.9-4.5-6.7c-0.3-0.7-0.5-1.6-0.7-2.7
			s-0.3-2.2-0.4-3.4c-0.1-1.2-0.2-2.5-0.2-3.7c0-1.3,0-2.5,0-3.6c0-1.2,0-2.2,0-3.1c0-0.9,0-1.7,0.1-2.2v-15.4h1.2V365.5z
			 M-216.4,372.4c0,4.1,1.1,7.5,3.3,10.4c2.1,3,5.2,4.5,9.2,4.5c4,0,7-1.5,9-4.5c2-2.8,2.9-6.3,2.9-10.4c0-3.8-0.9-7.2-2.8-10.3
			c-1.9-3.1-4.9-4.7-9.2-4.7C-212,357.5-216.1,362.5-216.4,372.4z"/>
		<path fill="#FFFFFF" d="M-181.2,386.5h27.5v1.2h-28.7v-42.8h28.4v1.2h-27.2v18.7h25.6v1.2h-25.6V386.5z"/>
		<path fill="#FFFFFF" d="M-147.1,344.9h1.2v42.8h-1.2V344.9z"/>
		<path fill="#FFFFFF" d="M-136.9,372.6c0,4.2,1,7.7,2.9,10.4c1.9,2.8,5,4.3,9.3,4.3c6.7,0,10.7-3.4,12-10.2h1.2
			c-0.5,3.6-1.9,6.4-4.2,8.3c-2.4,2-5.4,3.1-8.9,3.1c-4.7,0-8.1-1.6-10.3-4.6c-2.2-3-3.3-6.8-3.3-11.5c0.1-5.2,1.5-9.2,4.2-12
			c2.6-2.8,5.7-4.2,9.3-4.2c4.8,0.1,8.3,1.8,10.5,5c2.2,3.2,3.2,7,3,11.4H-136.9z M-112.3,371.4c0-3.9-1-7.2-3-9.9
			c-2.1-2.7-5.1-4.1-9.2-4.1c-3.4,0-6.2,1.3-8.5,3.7c-2.3,2.5-3.6,5.9-3.9,10.3H-112.3z"/>
		<path fill="#FFFFFF" d="M-102.1,376.1v11.6h-1.2v-42.8h1.2v29.7l21.3-17.7h1.7l-14.2,11.8c0.8,1.9,1.8,3.7,3,5.4
			c1.2,1.7,2.5,3.2,4,4.7s3,2.8,4.7,4.1s3.4,2.5,5.1,3.7l-0.1,1.1c-2.2-1.2-4.2-2.5-6-3.9s-3.5-2.9-5-4.5c-1.5-1.6-2.8-3.2-3.9-4.8
			s-2-3.4-2.7-5.1L-102.1,376.1z"/>
		<path fill="#FFFFFF" d="M-70.4,358.1v23.6c0,2.2,0.5,3.6,1.4,4.1c0.4,0.3,0.9,0.5,1.4,0.6c0.4,0.1,0.9,0.2,1.3,0.2
			c1.3,0,2.2-0.1,2.6-0.2v1.2c-0.2,0-0.3,0-0.5,0c-0.2,0-0.4,0-0.5,0c-0.3,0.1-1,0.1-1.9,0.1c-1.4,0-2.6-0.4-3.5-1.3
			c-0.5-0.5-0.8-1.1-1-1.8c-0.3-0.8-0.5-1.7-0.5-2.7v-23.9h-5.7v-1.2h5.7v-9.1l1.2-0.6v9.7h7v1.2H-70.4z"/>
		<path fill="#FFFFFF" d="M-55,387.7h-1.2v-30.8h1.2v7.6h0.1c0.5-2.3,1.8-4.3,3.8-6c1.9-1.6,4.7-2.4,8.3-2.3v1.2
			c-4.2-0.1-7.3,1.2-9.2,3.7c-2,2.6-3,5.7-3,9.2V387.7z"/>
		<path fill="#FFFFFF" d="M-36.5,351h-1.2v-6.1h1.2V351z M-36.5,387.7h-1.2v-30.8h1.2V387.7z"/>
		<path fill="#FFFFFF" d="M-25.7,376.1v11.6h-1.2v-42.8h1.2v29.7l21.3-17.7h1.7l-14.2,11.8c0.8,1.9,1.9,3.7,3,5.4
			c1.2,1.7,2.5,3.2,4,4.7s3,2.8,4.7,4.1s3.4,2.5,5.1,3.7l-0.1,1.1c-2.2-1.2-4.2-2.5-6-3.9s-3.5-2.9-5-4.5c-1.5-1.6-2.8-3.2-3.9-4.8
			s-2-3.4-2.7-5.1L-25.7,376.1z"/>
		<path fill="#FFFFFF" d="M2.1,372.6c0,4.2,1,7.7,2.9,10.4c1.9,2.8,5,4.3,9.3,4.3c6.7,0,10.7-3.4,12-10.2h1.2
			c-0.5,3.6-1.9,6.4-4.2,8.3c-2.4,2-5.4,3.1-8.9,3.1c-4.7,0-8.1-1.6-10.3-4.6c-2.2-3-3.3-6.8-3.3-11.5c0.1-5.2,1.5-9.2,4.2-12
			c2.6-2.8,5.7-4.2,9.3-4.2c4.8,0.1,8.3,1.8,10.5,5c2.2,3.2,3.2,7,3,11.4H2.1z M26.7,371.4c0-3.9-1-7.2-3-9.9
			c-2.1-2.7-5.1-4.1-9.2-4.1c-3.4,0-6.2,1.3-8.5,3.7c-2.3,2.5-3.6,5.9-3.9,10.3H26.7z"/>
	</g>
</g>
</svg>
