<?xml version="1.0" encoding="utf-8"?>
<!-- Generator: Adobe Illustrator 16.0.3, SVG Export Plug-In . SVG Version: 6.00 Build 0)  -->
<!DOCTYPE svg PUBLIC "-//W3C//DTD SVG 1.1//EN" "http://www.w3.org/Graphics/SVG/1.1/DTD/svg11.dtd">
<svg version="1.1" id="Layer_1" xmlns="http://www.w3.org/2000/svg" xmlns:xlink="http://www.w3.org/1999/xlink" x="0px" y="0px"
	 width="324px" height="82px" viewBox="0 0 324 82" enable-background="new 0 0 324 82" xml:space="preserve">
<rect y="11.69" fill="#34AADC" width="324" height="66"/>
<path fill="#FFFFFF" stroke="#34AADC" stroke-miterlimit="10" d="M85.25,30.75C81.169,13.372,66.435,0.5,48.877,0.5
	c-17.557,0-32.291,12.872-36.373,30.25h20v19.875c0,1.795,1.455,3.25,3.25,3.25s3.25-1.455,3.25-3.25V30.75h19.5v19.875
	c0,1.795,1.455,3.25,3.25,3.25s3.25-1.455,3.25-3.25V30.75H85.25z"/>
<path fill="#FFFFFF" stroke="#34AADC" stroke-miterlimit="10" d="M78.918,48.5c-3.007,14.75-15.311,25.799-30.041,25.799
	c-14.729,0-27.033-11.049-30.041-25.799h-6.875c3.105,18.752,18.446,33,36.916,33c18.471,0,33.812-14.249,36.916-33H78.918z"/>
<path fill="#FFFFFF" d="M100.488,47.935c0.02,4.219,0.977,7.695,2.871,10.43c1.914,2.832,5.02,4.258,9.316,4.277
	c6.68-0.02,10.693-3.428,12.041-10.225h1.201c-0.469,3.574-1.865,6.357-4.189,8.35c-2.383,2.031-5.361,3.057-8.936,3.076
	c-4.727-0.039-8.145-1.582-10.254-4.629c-2.207-3.008-3.291-6.846-3.252-11.514c0.078-5.215,1.484-9.199,4.219-11.953
	c2.617-2.793,5.713-4.189,9.287-4.189c4.805,0.098,8.301,1.758,10.488,4.98c2.207,3.223,3.213,7.021,3.018,11.396H100.488z
	 M125.098,46.733c0.039-3.945-0.967-7.246-3.018-9.902c-2.09-2.695-5.146-4.053-9.17-4.072c-3.359,0.02-6.201,1.26-8.525,3.721
	c-2.285,2.461-3.584,5.879-3.896,10.254H125.098z"/>
<path fill="#FFFFFF" d="M132.104,20.278h1.201V63.11h-1.201V20.278z"/>
<path fill="#FFFFFF" d="M142.281,47.935c0.02,4.219,0.977,7.695,2.871,10.43c1.914,2.832,5.02,4.258,9.316,4.277
	c6.68-0.02,10.693-3.428,12.041-10.225h1.201c-0.469,3.574-1.865,6.357-4.189,8.35c-2.383,2.031-5.361,3.057-8.936,3.076
	c-4.727-0.039-8.145-1.582-10.254-4.629c-2.207-3.008-3.291-6.846-3.252-11.514c0.078-5.215,1.484-9.199,4.219-11.953
	c2.617-2.793,5.713-4.189,9.287-4.189c4.805,0.098,8.301,1.758,10.488,4.98c2.207,3.223,3.213,7.021,3.018,11.396H142.281z
	 M166.891,46.733c0.039-3.945-0.967-7.246-3.018-9.902c-2.09-2.695-5.146-4.053-9.17-4.072c-3.359,0.02-6.201,1.26-8.525,3.721
	c-2.285,2.461-3.584,5.879-3.896,10.254H166.891z"/>
<path fill="#FFFFFF" d="M285.018,47.202c0.02,4.219,0.977,7.695,2.871,10.43c1.914,2.832,5.02,4.258,9.316,4.277
	c6.68-0.02,10.693-3.428,12.041-10.225h1.201c-0.469,3.574-1.865,6.357-4.189,8.35c-2.383,2.031-5.361,3.057-8.936,3.076
	c-4.727-0.039-8.145-1.582-10.254-4.629c-2.207-3.008-3.291-6.846-3.252-11.514c0.078-5.215,1.484-9.199,4.219-11.953
	c2.617-2.793,5.713-4.189,9.287-4.189c4.805,0.098,8.301,1.758,10.488,4.98c2.207,3.223,3.213,7.021,3.018,11.396H285.018z
	 M309.627,46.001c0.039-3.945-0.967-7.246-3.018-9.902c-2.09-2.695-5.146-4.053-9.17-4.072c-3.359,0.02-6.201,1.26-8.525,3.721
	c-2.285,2.461-3.584,5.879-3.896,10.254H309.627z"/>
<path fill="#FFFFFF" d="M175.098,51.479V63.11h-1.201V20.278h1.201v29.707l21.299-17.725h1.729l-14.15,11.777
	c0.84,1.914,1.85,3.701,3.032,5.361c1.182,1.66,2.5,3.223,3.955,4.688c1.454,1.465,3.007,2.847,4.658,4.146
	c1.65,1.299,3.364,2.544,5.142,3.735l-0.059,1.143c-2.168-1.172-4.175-2.466-6.021-3.882s-3.511-2.905-4.995-4.468
	s-2.783-3.179-3.896-4.849s-2.021-3.354-2.725-5.054L175.098,51.479z"/>
<path fill="#FFFFFF" d="M210.547,33.462v23.643c0.049,2.207,0.648,3.564,1.799,4.072c0.514,0.273,1.101,0.459,1.762,0.557
	c0.537,0.117,1.088,0.176,1.65,0.176c1.639,0,2.74-0.059,3.303-0.176v1.201c-0.195,0-0.403,0.005-0.623,0.015
	c-0.221,0.01-0.44,0.024-0.66,0.044c-0.417,0.078-1.225,0.117-2.423,0.117c-1.737,0-3.205-0.42-4.403-1.26
	c-0.588-0.527-1.016-1.123-1.284-1.787c-0.417-0.762-0.624-1.67-0.624-2.725V33.462h-7.119v-1.201h7.119v-9.082l1.504-0.615v9.697
	h8.734v1.201H210.547z"/>
<path fill="#FFFFFF" d="M226.425,63.11H225v-30.85h1.425v7.617h0.14c0.648-2.344,2.143-4.336,4.482-5.977
	c2.271-1.641,5.562-2.422,9.871-2.344v1.201c-4.959-0.078-8.607,1.162-10.947,3.721c-2.364,2.617-3.546,5.674-3.546,9.17V63.11z"/>
<path fill="#FFFFFF" d="M247.895,26.343H246.5v-6.064h1.395V26.343z M247.895,63.11H246.5v-30.85h1.395V63.11z"/>
<path fill="#FFFFFF" d="M256.521,51.479V63.11h-1.201V20.278h1.201v29.707l21.299-17.725h1.729l-14.15,11.777
	c0.84,1.914,1.852,3.701,3.033,5.361s2.5,3.223,3.955,4.688s3.008,2.847,4.658,4.146s3.363,2.544,5.141,3.735l-0.059,1.143
	c-2.168-1.172-4.174-2.466-6.02-3.882s-3.512-2.905-4.996-4.468s-2.783-3.179-3.896-4.849s-2.021-3.354-2.725-5.054L256.521,51.479z
	"/>
</svg>
